<mxfile host="app.diagrams.net" modified="2023-05-22T02:07:32.520Z" agent="Mozilla/5.0 (Macintosh; Intel Mac OS X 10_15_7) AppleWebKit/605.1.15 (KHTML, like Gecko) Version/15.3 Safari/605.1.15" version="21.3.2" etag="3THhDpBeFl7FueixzjUy" type="github">
  <diagram name="第 1 页" id="9TlZiL1ePBKl1wJncVpo">
    <mxGraphModel>
      <root>
        <mxCell id="0" />
        <mxCell id="1" parent="0" />
        <mxCell id="2" value="中心主题" style="rounded=1;absoluteArcSize=1;arcSize=14;whiteSpace=wrap;strokeWidth=2;" vertex="1" parent="1">
          <mxGeometry x="247" width="79" height="34" as="geometry" />
        </mxCell>
        <mxCell id="3" value="分支主题1" style="rounded=1;absoluteArcSize=1;arcSize=14;whiteSpace=wrap;strokeWidth=2;" vertex="1" parent="1">
          <mxGeometry x="53" y="84" width="87" height="34" as="geometry" />
        </mxCell>
        <mxCell id="4" value="分支主题2" style="rounded=1;absoluteArcSize=1;arcSize=14;whiteSpace=wrap;strokeWidth=2;" vertex="1" parent="1">
          <mxGeometry x="243" y="84" width="87" height="34" as="geometry" />
        </mxCell>
        <mxCell id="5" value="分支主题3" style="rounded=1;absoluteArcSize=1;arcSize=14;whiteSpace=wrap;strokeWidth=2;" vertex="1" parent="1">
          <mxGeometry x="380" y="84" width="87" height="34" as="geometry" />
        </mxCell>
        <mxCell id="6" value="子主题1" style="rounded=1;absoluteArcSize=1;arcSize=14;whiteSpace=wrap;strokeWidth=2;" vertex="1" parent="1">
          <mxGeometry y="167" width="71" height="34" as="geometry" />
        </mxCell>
        <mxCell id="7" value="子主题2" style="rounded=1;absoluteArcSize=1;arcSize=14;whiteSpace=wrap;strokeWidth=2;" vertex="1" parent="1">
          <mxGeometry x="121" y="167" width="71" height="34" as="geometry" />
        </mxCell>
        <mxCell id="8" value="子主题3" style="rounded=1;absoluteArcSize=1;arcSize=14;whiteSpace=wrap;strokeWidth=2;" vertex="1" parent="1">
          <mxGeometry x="251" y="167" width="71" height="34" as="geometry" />
        </mxCell>
        <mxCell id="9" value="子主题4" style="rounded=1;absoluteArcSize=1;arcSize=14;whiteSpace=wrap;strokeWidth=2;" vertex="1" parent="1">
          <mxGeometry x="388" y="167" width="71" height="34" as="geometry" />
        </mxCell>
        <mxCell id="10" value="" style="curved=1;startArrow=none;endArrow=block;exitX=-0.0002966772151898734;exitY=0.7494793202873604;entryX=0.49874281609195403;entryY=-0.011948529411764705;" edge="1" parent="1" source="2" target="3">
          <mxGeometry relative="1" as="geometry">
            <Array as="points">
              <mxPoint x="96" y="59" />
            </Array>
          </mxGeometry>
        </mxCell>
        <mxCell id="11" value="" style="curved=1;startArrow=none;endArrow=block;exitX=0.4997033227848101;exitY=0.9880514705882353;entryX=0.49973060344827586;entryY=-0.011948529411764705;" edge="1" parent="1" source="2" target="4">
          <mxGeometry relative="1" as="geometry">
            <Array as="points" />
          </mxGeometry>
        </mxCell>
        <mxCell id="12" value="" style="curved=1;startArrow=none;endArrow=block;exitX=0.9997033227848101;exitY=0.8474569405978017;entryX=0.5042205459770115;entryY=-0.011948529411764705;" edge="1" parent="1" source="2" target="5">
          <mxGeometry relative="1" as="geometry">
            <Array as="points">
              <mxPoint x="424" y="59" />
            </Array>
          </mxGeometry>
        </mxCell>
        <mxCell id="13" value="" style="curved=1;startArrow=none;endArrow=block;exitX=0.21837989445697711;exitY=0.9761029411764706;entryX=0.5027508802816901;entryY=0.0055147058823529415;" edge="1" parent="1" source="3" target="6">
          <mxGeometry relative="1" as="geometry">
            <Array as="points">
              <mxPoint x="36" y="142" />
            </Array>
          </mxGeometry>
        </mxCell>
        <mxCell id="14" value="" style="curved=1;startArrow=none;endArrow=block;exitX=0.7791057377269309;exitY=0.9761029411764706;entryX=0.5082526408450704;entryY=0.0055147058823529415;" edge="1" parent="1" source="3" target="7">
          <mxGeometry relative="1" as="geometry">
            <Array as="points">
              <mxPoint x="157" y="142" />
            </Array>
          </mxGeometry>
        </mxCell>
        <mxCell id="15" value="" style="curved=1;startArrow=none;endArrow=block;exitX=0.49973060344827586;exitY=0.9761029411764706;entryX=0.4996698943661972;entryY=0.0055147058823529415;" edge="1" parent="1" source="4" target="8">
          <mxGeometry relative="1" as="geometry">
            <Array as="points" />
          </mxGeometry>
        </mxCell>
        <mxCell id="16" value="" style="curved=1;startArrow=none;endArrow=block;exitX=0.5042205459770115;exitY=0.9761029411764706;entryX=0.5051716549295775;entryY=0.0055147058823529415;" edge="1" parent="1" source="5" target="9">
          <mxGeometry relative="1" as="geometry">
            <Array as="points" />
          </mxGeometry>
        </mxCell>
      </root>
    </mxGraphModel>
  </diagram>
</mxfile>
